# xmcd CD database file
#
# Track frame offsets:
#	150
#	5250
#	27380
#	52712
#	61597
#	89267
#	126930
#	145482
#	170537
#	180297
#	210365
#	236670
#
# Disc length: 3335 seconds
#
# Revision: 2
# Processed by: cddbd v1.4b41PL1 Copyright (c) Steve Scherf et al.
# Submitted via: Feurio! 1.52 - http://www.feurio.com
#
DISCID=910d050c
DTITLE=Lex van Someren - Shangrila
DYEAR=1900
DGENRE=
TTITLE0=Tibet I
TTITLE1=Shangrila
TTITLE2=Healing Stones
TTITLE3=Initiation Of A Mother
TTITLE4=Jannai
TTITLE5=Shahom Talitha
TTITLE6=My Soul, My Temple
TTITLE7=Northern Sky
TTITLE8=Tibet II
TTITLE9=Miradu
TTITLE10=OM, Tibet My Home
TTITLE11=Two Hermits
EXTD=
EXTT0=
EXTT1=
EXTT2=
EXTT3=
EXTT4=
EXTT5=
EXTT6=
EXTT7=
EXTT8=
EXTT9=
EXTT10=
EXTT11=
PLAYORDER=
